{
	"asset":{
		"generator":"Khronos glTF Blender I/O v4.1.63",
		"version":"2.0"
	},
	"extensionsUsed":[
		"KHR_materials_specular"
	],
	"scene":0,
	"scenes":[
		{
			"name":"Scene",
			"nodes":[
				0
			]
		}
	],
	"nodes":[
		{
			"mesh":0,
			"name":"motorputamierda",
			"rotation":[
				0.008593948557972908,
				0.17364157736301422,
				-0.0015153397107496858,
				0.9847703576087952
			]
		}
	],
	"materials":[
		{
			"alphaMode":"BLEND",
			"doubleSided":true,
			"extensions":{
				"KHR_materials_specular":{
					"specularFactor":0
				}
			},
			"name":"material0",
			"pbrMetallicRoughness":{
				"baseColorTexture":{
					"index":0
				},
				"metallicFactor":0
			}
		}
	],
	"meshes":[
		{
			"name":"motorputamierda",
			"primitives":[
				{
					"attributes":{
						"POSITION":0,
						"NORMAL":1,
						"TEXCOORD_0":2
					},
					"indices":3,
					"material":0
				}
			]
		}
	],
	"textures":[
		{
			"sampler":0,
			"source":0
		}
	],
	"images":[
		{
			"mimeType":"image/png",
			"name":"motorputamierda",
			"uri":"motorputamierda.png"
		}
	],
	"accessors":[
		{
			"bufferView":0,
			"componentType":5126,
			"count":36335,
			"max":[
				-0.09821242094039917,
				0.18121366202831268,
				0.05558723583817482
			],
			"min":[
				-0.25677552819252014,
				-0.12793610990047455,
				-0.2400144636631012
			],
			"type":"VEC3"
		},
		{
			"bufferView":1,
			"componentType":5126,
			"count":36335,
			"type":"VEC3"
		},
		{
			"bufferView":2,
			"componentType":5126,
			"count":36335,
			"type":"VEC2"
		},
		{
			"bufferView":3,
			"componentType":5123,
			"count":89499,
			"type":"SCALAR"
		}
	],
	"bufferViews":[
		{
			"buffer":0,
			"byteLength":436020,
			"byteOffset":0,
			"target":34962
		},
		{
			"buffer":0,
			"byteLength":436020,
			"byteOffset":436020,
			"target":34962
		},
		{
			"buffer":0,
			"byteLength":290680,
			"byteOffset":872040,
			"target":34962
		},
		{
			"buffer":0,
			"byteLength":178998,
			"byteOffset":1162720,
			"target":34963
		}
	],
	"samplers":[
		{
			"magFilter":9729,
			"minFilter":9987
		}
	],
	"buffers":[
		{
			"byteLength":1341720,
			"uri":"Rodamiento.bin"
		}
	]
}
