{
	"asset":{
		"generator":"Khronos glTF Blender I/O v4.1.63",
		"version":"2.0"
	},
	"extensionsUsed":[
		"KHR_materials_specular"
	],
	"scene":0,
	"scenes":[
		{
			"name":"Scene",
			"nodes":[
				0
			]
		}
	],
	"nodes":[
		{
			"mesh":0,
			"name":"Motor",
			"rotation":[
				0.008593948557972908,
				0.17364157736301422,
				-0.0015153397107496858,
				0.9847703576087952
			]
		}
	],
	"materials":[
		{
			"alphaMode":"BLEND",
			"doubleSided":true,
			"extensions":{
				"KHR_materials_specular":{
					"specularFactor":0
				}
			},
			"name":"material0",
			"pbrMetallicRoughness":{
				"baseColorTexture":{
					"index":0
				},
				"metallicFactor":0
			}
		}
	],
	"meshes":[
		{
			"name":"Motor",
			"primitives":[
				{
					"attributes":{
						"POSITION":0,
						"NORMAL":1,
						"TEXCOORD_0":2
					},
					"indices":3,
					"material":0
				}
			]
		}
	],
	"textures":[
		{
			"sampler":0,
			"source":0
		}
	],
	"images":[
		{
			"mimeType":"image/png",
			"name":"motorputamierda",
			"uri":"motorputamierda.png"
		}
	],
	"accessors":[
		{
			"bufferView":0,
			"componentType":5126,
			"count":225979,
			"max":[
				0.27464231848716736,
				0.31841567158699036,
				0.21296551823616028
			],
			"min":[
				-0.25677552819252014,
				-0.14982306957244873,
				-0.2500564157962799
			],
			"type":"VEC3"
		},
		{
			"bufferView":1,
			"componentType":5126,
			"count":225979,
			"type":"VEC3"
		},
		{
			"bufferView":2,
			"componentType":5126,
			"count":225979,
			"type":"VEC2"
		},
		{
			"bufferView":3,
			"componentType":5125,
			"count":577398,
			"type":"SCALAR"
		}
	],
	"bufferViews":[
		{
			"buffer":0,
			"byteLength":2711748,
			"byteOffset":0,
			"target":34962
		},
		{
			"buffer":0,
			"byteLength":2711748,
			"byteOffset":2711748,
			"target":34962
		},
		{
			"buffer":0,
			"byteLength":1807832,
			"byteOffset":5423496,
			"target":34962
		},
		{
			"buffer":0,
			"byteLength":2309592,
			"byteOffset":7231328,
			"target":34963
		}
	],
	"samplers":[
		{
			"magFilter":9729,
			"minFilter":9987
		}
	],
	"buffers":[
		{
			"byteLength":9540920,
			"uri":"MotorGLTF.bin"
		}
	]
}
